# xmcd
#
# Track frame offsets:
#	150
#	23852
#	44290
#	64669
#	82665
#
# Disc length: 1533 seconds
#
# Revision: 1
# Processed by: cddbd v1.5.1PL2 Copyright (c) Steve Scherf et al.
# Submitted via: audiograbber 1.83.01
#
DISCID=3005fb05
DTITLE=VooDoo Horseshoes - Spring Sampler 2006
DYEAR=2005
DGENRE=Bluegrass
TTITLE0=Ride On (right on) {Gordon,Roberts,Daniel}
TTITLE1=Ol' Joe Clark (Traditional)
TTITLE2=I Can't {Gordon}
TTITLE3=Jambalya {H. Williams}
TTITLE4=Questions Of War {Gordon}
EXTD=This AIN'T Yo' Pappas Bluegrass
EXTT0=
EXTT1=
EXTT2=
EXTT3=
EXTT4=
PLAYORDER=
